<svg xmlns="http://www.w3.org/2000/svg" viewBox="0 0 1176 60" role="img" aria-label="tinkercloud">
<g fill="#4f9cf9">
<rect x="0" y="0" width="96" height="12"/>
<rect x="120" y="0" width="24" height="12"/>
<rect x="168" y="0" width="36" height="12"/>
<rect x="252" y="0" width="24" height="12"/>
<rect x="300" y="0" width="24" height="12"/>
<rect x="360" y="0" width="24" height="12"/>
<rect x="408" y="0" width="84" height="12"/>
<rect x="516" y="0" width="72" height="12"/>
<rect x="636" y="0" width="72" height="12"/>
<rect x="732" y="0" width="24" height="12"/>
<rect x="852" y="0" width="72" height="12"/>
<rect x="960" y="0" width="24" height="12"/>
<rect x="1032" y="0" width="24" height="12"/>
<rect x="1080" y="0" width="72" height="12"/>
<rect x="36" y="12" width="24" height="12"/>
<rect x="120" y="12" width="24" height="12"/>
<rect x="168" y="12" width="48" height="12"/>
<rect x="252" y="12" width="24" height="12"/>
<rect x="300" y="12" width="24" height="12"/>
<rect x="348" y="12" width="24" height="12"/>
<rect x="408" y="12" width="24" height="12"/>
<rect x="516" y="12" width="24" height="12"/>
<rect x="576" y="12" width="24" height="12"/>
<rect x="624" y="12" width="24" height="12"/>
<rect x="732" y="12" width="24" height="12"/>
<rect x="840" y="12" width="24" height="12"/>
<rect x="912" y="12" width="24" height="12"/>
<rect x="960" y="12" width="24" height="12"/>
<rect x="1032" y="12" width="24" height="12"/>
<rect x="1080" y="12" width="24" height="12"/>
<rect x="1140" y="12" width="24" height="12"/>
<rect x="36" y="24" width="24" height="12"/>
<rect x="120" y="24" width="24" height="12"/>
<rect x="168" y="24" width="24" height="12"/>
<rect x="204" y="24" width="24" height="12"/>
<rect x="252" y="24" width="24" height="12"/>
<rect x="300" y="24" width="60" height="12"/>
<rect x="408" y="24" width="60" height="12"/>
<rect x="516" y="24" width="72" height="12"/>
<rect x="624" y="24" width="24" height="12"/>
<rect x="732" y="24" width="24" height="12"/>
<rect x="840" y="24" width="24" height="12"/>
<rect x="912" y="24" width="24" height="12"/>
<rect x="960" y="24" width="24" height="12"/>
<rect x="1032" y="24" width="24" height="12"/>
<rect x="1080" y="24" width="24" height="12"/>
<rect x="1140" y="24" width="24" height="12"/>
<rect x="36" y="36" width="24" height="12"/>
<rect x="120" y="36" width="24" height="12"/>
<rect x="168" y="36" width="24" height="12"/>
<rect x="216" y="36" width="24" height="12"/>
<rect x="252" y="36" width="24" height="12"/>
<rect x="300" y="36" width="24" height="12"/>
<rect x="348" y="36" width="24" height="12"/>
<rect x="408" y="36" width="24" height="12"/>
<rect x="516" y="36" width="24" height="12"/>
<rect x="576" y="36" width="24" height="12"/>
<rect x="624" y="36" width="24" height="12"/>
<rect x="732" y="36" width="24" height="12"/>
<rect x="840" y="36" width="24" height="12"/>
<rect x="912" y="36" width="24" height="12"/>
<rect x="960" y="36" width="24" height="12"/>
<rect x="1032" y="36" width="24" height="12"/>
<rect x="1080" y="36" width="24" height="12"/>
<rect x="1140" y="36" width="24" height="12"/>
<rect x="36" y="48" width="24" height="12"/>
<rect x="120" y="48" width="24" height="12"/>
<rect x="168" y="48" width="24" height="12"/>
<rect x="228" y="48" width="48" height="12"/>
<rect x="300" y="48" width="24" height="12"/>
<rect x="360" y="48" width="24" height="12"/>
<rect x="408" y="48" width="84" height="12"/>
<rect x="516" y="48" width="24" height="12"/>
<rect x="576" y="48" width="24" height="12"/>
<rect x="636" y="48" width="72" height="12"/>
<rect x="732" y="48" width="84" height="12"/>
<rect x="852" y="48" width="72" height="12"/>
<rect x="972" y="48" width="72" height="12"/>
<rect x="1080" y="48" width="72" height="12"/>
</g></svg>
